<svg xmlns="http://www.w3.org/2000/svg" width="900" height="520">
  <rect x="0" y="0" width="900" height="520" fill="white" stroke="none"/>
  <text x="450.0" y="28" font-size="16" text-anchor="middle">实验7 性能曲线（TPS）</text>
  <line x1="80" y1="60" x2="80" y2="450" stroke="#333" />
  <line x1="80" y1="450" x2="730" y2="450" stroke="#333" />
  <polyline fill="none" stroke="#1976d2" stroke-width="2" points="405.00,60.00" /><polyline fill="none" stroke="#d32f2f" stroke-width="2" points="405.00,450.00" />
  <text x="80.00" y="474" font-size="12" text-anchor="middle">999.00</text><text x="210.00" y="474" font-size="12" text-anchor="middle">999.40</text><text x="340.00" y="474" font-size="12" text-anchor="middle">999.80</text><text x="470.00" y="474" font-size="12" text-anchor="middle">1000.20</text><text x="600.00" y="474" font-size="12" text-anchor="middle">1000.60</text><text x="730.00" y="474" font-size="12" text-anchor="middle">1001.00</text><text x="68" y="454.00" font-size="12" text-anchor="end">14.48</text><text x="68" y="376.00" font-size="12" text-anchor="end">14.48</text><text x="68" y="298.00" font-size="12" text-anchor="end">14.49</text><text x="68" y="220.00" font-size="12" text-anchor="end">14.50</text><text x="68" y="142.00" font-size="12" text-anchor="end">14.50</text><text x="68" y="64.00" font-size="12" text-anchor="end">14.51</text>
  <text x="450.0" y="506" font-size="12" text-anchor="middle">交易数量</text>
  <text x="18" y="260.0" font-size="12" text-anchor="middle" transform="rotate(-90 18 260.0)">性能(TPS)</text>
  <rect x="750" y="60" width="12" height="12" fill="#1976d2" /><text x="768" y="70" font-size="12" text-anchor="start">nodes=4</text><rect x="750" y="78" width="12" height="12" fill="#d32f2f" /><text x="768" y="88" font-size="12" text-anchor="start">nodes=8</text>
</svg>