<svg xmlns="http://www.w3.org/2000/svg" width="960" height="560">
  <rect x="0" y="0" width="960" height="560" fill="white" stroke="none"/>
  <text x="480.0" y="30" font-size="16" text-anchor="middle">实验1 性能柱状图（TPS）</text>
  <line x1="80" y1="60" x2="80" y2="482" stroke="#333" />
  <line x1="80" y1="482" x2="750" y2="482" stroke="#333" />
  <rect x="96.00" y="60.00" width="22.50" height="422.00" fill="#1976d2" /><rect x="230.00" y="68.08" width="22.50" height="413.92" fill="#1976d2" /><rect x="364.00" y="76.24" width="22.50" height="405.76" fill="#1976d2" /><rect x="498.00" y="67.91" width="22.50" height="414.09" fill="#1976d2" /><rect x="632.00" y="72.49" width="22.50" height="409.51" fill="#1976d2" /><rect x="122.50" y="64.33" width="22.50" height="417.67" fill="#d32f2f" /><rect x="256.50" y="67.17" width="22.50" height="414.83" fill="#d32f2f" /><rect x="390.50" y="85.08" width="22.50" height="396.92" fill="#d32f2f" /><rect x="524.50" y="66.03" width="22.50" height="415.97" fill="#d32f2f" /><rect x="658.50" y="77.49" width="22.50" height="404.51" fill="#d32f2f" /><rect x="149.00" y="121.07" width="22.50" height="360.93" fill="#388e3c" /><rect x="283.00" y="89.84" width="22.50" height="392.16" fill="#388e3c" /><rect x="417.00" y="64.24" width="22.50" height="417.76" fill="#388e3c" /><rect x="551.00" y="79.92" width="22.50" height="402.08" fill="#388e3c" /><rect x="685.00" y="91.27" width="22.50" height="390.73" fill="#388e3c" /><rect x="175.50" y="266.68" width="22.50" height="215.32" fill="#f57c00" /><rect x="309.50" y="153.48" width="22.50" height="328.52" fill="#f57c00" /><rect x="443.50" y="218.81" width="22.50" height="263.19" fill="#f57c00" /><rect x="577.50" y="212.97" width="22.50" height="269.03" fill="#f57c00" /><rect x="711.50" y="165.96" width="22.50" height="316.04" fill="#f57c00" />
  <text x="147.00" y="510" font-size="12" text-anchor="middle">100</text><text x="281.00" y="510" font-size="12" text-anchor="middle">250</text><text x="415.00" y="510" font-size="12" text-anchor="middle">500</text><text x="549.00" y="510" font-size="12" text-anchor="middle">750</text><text x="683.00" y="510" font-size="12" text-anchor="middle">1000</text><text x="68" y="486.00" font-size="12" text-anchor="end">0.00</text><text x="68" y="401.60" font-size="12" text-anchor="end">7.84</text><text x="68" y="317.20" font-size="12" text-anchor="end">15.67</text><text x="68" y="232.80" font-size="12" text-anchor="end">23.51</text><text x="68" y="148.40" font-size="12" text-anchor="end">31.35</text><text x="68" y="64.00" font-size="12" text-anchor="end">39.18</text>
  <text x="480.0" y="544" font-size="12" text-anchor="middle">交易数量</text>
  <text x="20" y="280.0" font-size="12" text-anchor="middle" transform="rotate(-90 20 280.0)">性能(TPS)</text>
  <rect x="770" y="62" width="12" height="12" fill="#1976d2" /><text x="788" y="72" font-size="12" text-anchor="start">nodes=4</text><rect x="770" y="80" width="12" height="12" fill="#d32f2f" /><text x="788" y="90" font-size="12" text-anchor="start">nodes=8</text><rect x="770" y="98" width="12" height="12" fill="#388e3c" /><text x="788" y="108" font-size="12" text-anchor="start">nodes=16</text><rect x="770" y="116" width="12" height="12" fill="#f57c00" /><text x="788" y="126" font-size="12" text-anchor="start">nodes=32</text>
</svg>