<svg xmlns="http://www.w3.org/2000/svg" width="960" height="560">
  <rect x="0" y="0" width="960" height="560" fill="white" stroke="none"/>
  <text x="480.0" y="30" font-size="16" text-anchor="middle">检查图</text>
  <line x1="80" y1="60" x2="80" y2="482" stroke="#333" />
  <line x1="80" y1="482" x2="750" y2="482" stroke="#333" />
  <rect x="96.00" y="157.38" width="149.50" height="324.62" fill="#1976d2" /><rect x="431.00" y="124.92" width="149.50" height="357.08" fill="#1976d2" /><rect x="249.50" y="92.46" width="149.50" height="389.54" fill="#d32f2f" /><rect x="584.50" y="60.00" width="149.50" height="422.00" fill="#d32f2f" />
  <text x="247.50" y="510" font-size="12" text-anchor="middle">100</text><text x="582.50" y="510" font-size="12" text-anchor="middle">200</text><text x="68" y="486.00" font-size="12" text-anchor="end">0.00</text><text x="68" y="401.60" font-size="12" text-anchor="end">2.60</text><text x="68" y="317.20" font-size="12" text-anchor="end">5.20</text><text x="68" y="232.80" font-size="12" text-anchor="end">7.80</text><text x="68" y="148.40" font-size="12" text-anchor="end">10.40</text><text x="68" y="64.00" font-size="12" text-anchor="end">13.00</text>
  <text x="480.0" y="544" font-size="12" text-anchor="middle">交易数量</text>
  <text x="20" y="280.0" font-size="12" text-anchor="middle" transform="rotate(-90 20 280.0)">性能(TPS)</text>
  <rect x="770" y="62" width="12" height="12" fill="#1976d2" /><text x="788" y="72" font-size="12" text-anchor="start">nodes=4</text><rect x="770" y="80" width="12" height="12" fill="#d32f2f" /><text x="788" y="90" font-size="12" text-anchor="start">nodes=8</text>
</svg>